<svg width="900" height="302" viewBox="0 0 900 302" fill="none" xmlns="http://www.w3.org/2000/svg">
<rect width="900" height="302" fill="url(#paint0_linear)"/>
<path d="M315.085 204.34C315.258 203.967 315.545 203.78 315.945 203.78C316.211 203.78 316.451 203.873 316.665 204.06C316.878 204.233 316.985 204.447 316.985 204.7C316.985 204.793 316.951 204.92 316.885 205.08L311.245 217.44C311.151 217.653 311.005 217.82 310.805 217.94C310.605 218.06 310.391 218.12 310.165 218.12C309.938 218.12 309.718 218.06 309.505 217.94C309.305 217.82 309.158 217.653 309.065 217.44L303.445 205.08C303.378 204.92 303.345 204.793 303.345 204.7C303.345 204.433 303.451 204.213 303.665 204.04C303.891 203.867 304.138 203.78 304.405 203.78C304.818 203.78 305.111 203.967 305.285 204.34L310.185 215.32L315.085 204.34ZM320.604 218.1C320.31 218.1 320.064 218.02 319.864 217.86C319.677 217.7 319.584 217.46 319.584 217.14V209.02C319.584 208.7 319.677 208.46 319.864 208.3C320.064 208.127 320.31 208.04 320.604 208.04C320.897 208.04 321.137 208.127 321.324 208.3C321.51 208.46 321.604 208.7 321.604 209.02V217.14C321.604 217.46 321.51 217.7 321.324 217.86C321.137 218.02 320.897 218.1 320.604 218.1ZM320.604 206.08C320.217 206.08 319.91 205.973 319.684 205.76C319.457 205.547 319.344 205.267 319.344 204.92C319.344 204.573 319.457 204.3 319.684 204.1C319.91 203.887 320.217 203.78 320.604 203.78C320.977 203.78 321.277 203.887 321.504 204.1C321.744 204.3 321.864 204.573 321.864 204.92C321.864 205.267 321.75 205.547 321.524 205.76C321.297 205.973 320.99 206.08 320.604 206.08ZM327.827 218.14C326.467 218.14 325.354 217.86 324.487 217.3C324.247 217.153 324.074 217 323.967 216.84C323.874 216.68 323.827 216.5 323.827 216.3C323.827 216.087 323.887 215.907 324.007 215.76C324.127 215.613 324.281 215.54 324.467 215.54C324.641 215.54 324.914 215.647 325.287 215.86C325.687 216.073 326.074 216.247 326.447 216.38C326.834 216.513 327.314 216.58 327.887 216.58C328.527 216.58 329.027 216.467 329.387 216.24C329.747 216.013 329.927 215.693 329.927 215.28C329.927 215.013 329.854 214.8 329.707 214.64C329.574 214.48 329.334 214.34 328.987 214.22C328.641 214.087 328.127 213.947 327.447 213.8C326.274 213.547 325.427 213.207 324.907 212.78C324.401 212.34 324.147 211.747 324.147 211C324.147 210.427 324.314 209.913 324.647 209.46C324.981 208.993 325.441 208.633 326.027 208.38C326.614 208.127 327.281 208 328.027 208C328.561 208 329.081 208.073 329.587 208.22C330.094 208.353 330.541 208.553 330.927 208.82C331.367 209.113 331.587 209.453 331.587 209.84C331.587 210.053 331.521 210.233 331.387 210.38C331.267 210.527 331.121 210.6 330.947 210.6C330.827 210.6 330.707 210.573 330.587 210.52C330.467 210.467 330.307 210.38 330.107 210.26C329.747 210.047 329.407 209.88 329.087 209.76C328.781 209.64 328.394 209.58 327.927 209.58C327.367 209.58 326.914 209.7 326.567 209.94C326.234 210.18 326.067 210.507 326.067 210.92C326.067 211.293 326.221 211.587 326.527 211.8C326.847 212 327.441 212.193 328.307 212.38C329.201 212.567 329.901 212.78 330.407 213.02C330.914 213.26 331.274 213.56 331.487 213.92C331.714 214.267 331.827 214.713 331.827 215.26C331.827 216.127 331.461 216.827 330.727 217.36C330.007 217.88 329.041 218.14 327.827 218.14ZM335.096 218.1C334.802 218.1 334.556 218.02 334.356 217.86C334.169 217.7 334.076 217.46 334.076 217.14V209.02C334.076 208.7 334.169 208.46 334.356 208.3C334.556 208.127 334.802 208.04 335.096 208.04C335.389 208.04 335.629 208.127 335.816 208.3C336.002 208.46 336.096 208.7 336.096 209.02V217.14C336.096 217.46 336.002 217.7 335.816 217.86C335.629 218.02 335.389 218.1 335.096 218.1ZM335.096 206.08C334.709 206.08 334.402 205.973 334.176 205.76C333.949 205.547 333.836 205.267 333.836 204.92C333.836 204.573 333.949 204.3 334.176 204.1C334.402 203.887 334.709 203.78 335.096 203.78C335.469 203.78 335.769 203.887 335.996 204.1C336.236 204.3 336.356 204.573 336.356 204.92C336.356 205.267 336.242 205.547 336.016 205.76C335.789 205.973 335.482 206.08 335.096 206.08ZM343.973 216.56C344.266 216.587 344.473 216.667 344.593 216.8C344.726 216.92 344.793 217.093 344.793 217.32C344.793 217.587 344.686 217.793 344.473 217.94C344.273 218.073 343.973 218.127 343.573 218.1L343.033 218.06C341.953 217.98 341.146 217.653 340.613 217.08C340.08 216.493 339.813 215.633 339.813 214.5V209.8H338.613C338.026 209.8 337.733 209.54 337.733 209.02C337.733 208.78 337.806 208.593 337.953 208.46C338.113 208.313 338.333 208.24 338.613 208.24H339.813V206.18C339.813 205.873 339.9 205.633 340.073 205.46C340.26 205.287 340.506 205.2 340.813 205.2C341.12 205.2 341.366 205.287 341.553 205.46C341.74 205.633 341.833 205.873 341.833 206.18V208.24H343.813C344.093 208.24 344.306 208.313 344.453 208.46C344.613 208.593 344.693 208.78 344.693 209.02C344.693 209.273 344.613 209.467 344.453 209.6C344.306 209.733 344.093 209.8 343.813 209.8H341.833V214.64C341.833 215.267 341.96 215.727 342.213 216.02C342.48 216.313 342.88 216.48 343.413 216.52L343.973 216.56ZM353.884 215.54C354.07 215.54 354.224 215.613 354.344 215.76C354.464 215.907 354.524 216.093 354.524 216.32C354.524 216.707 354.284 217.033 353.804 217.3C353.337 217.567 352.824 217.773 352.264 217.92C351.717 218.067 351.19 218.14 350.684 218.14C349.137 218.14 347.917 217.693 347.024 216.8C346.13 215.893 345.684 214.66 345.684 213.1C345.684 212.1 345.877 211.213 346.264 210.44C346.664 209.667 347.217 209.067 347.924 208.64C348.644 208.213 349.457 208 350.364 208C351.67 208 352.704 208.42 353.464 209.26C354.224 210.1 354.604 211.233 354.604 212.66C354.604 213.193 354.364 213.46 353.884 213.46H347.704C347.837 215.527 348.83 216.56 350.684 216.56C351.177 216.56 351.604 216.493 351.964 216.36C352.324 216.227 352.704 216.053 353.104 215.84C353.144 215.813 353.25 215.76 353.424 215.68C353.61 215.587 353.764 215.54 353.884 215.54ZM350.404 209.48C349.63 209.48 349.01 209.727 348.544 210.22C348.077 210.713 347.797 211.407 347.704 212.3H352.864C352.824 211.393 352.59 210.7 352.164 210.22C351.75 209.727 351.164 209.48 350.404 209.48ZM366.343 218.14C365.383 218.14 364.536 217.933 363.803 217.52C363.083 217.107 362.523 216.52 362.123 215.76C361.736 214.987 361.543 214.093 361.543 213.08C361.543 212.053 361.736 211.16 362.123 210.4C362.523 209.627 363.083 209.033 363.803 208.62C364.536 208.207 365.383 208 366.343 208C367.303 208 368.143 208.207 368.863 208.62C369.596 209.033 370.156 209.627 370.543 210.4C370.943 211.16 371.143 212.053 371.143 213.08C371.143 214.093 370.943 214.987 370.543 215.76C370.156 216.52 369.596 217.107 368.863 217.52C368.143 217.933 367.303 218.14 366.343 218.14ZM366.343 216.54C367.236 216.54 367.916 216.247 368.383 215.66C368.863 215.073 369.103 214.213 369.103 213.08C369.103 211.96 368.863 211.107 368.383 210.52C367.903 209.92 367.223 209.62 366.343 209.62C365.463 209.62 364.783 209.92 364.303 210.52C363.823 211.107 363.583 211.96 363.583 213.08C363.583 214.213 363.816 215.073 364.283 215.66C364.763 216.247 365.45 216.54 366.343 216.54ZM378.512 208.04C379.152 208 379.472 208.273 379.472 208.86C379.472 209.153 379.399 209.373 379.252 209.52C379.106 209.667 378.852 209.753 378.492 209.78L377.892 209.84C377.052 209.92 376.426 210.213 376.012 210.72C375.612 211.227 375.412 211.84 375.412 212.56V217.14C375.412 217.46 375.319 217.7 375.132 217.86C374.946 218.02 374.706 218.1 374.412 218.1C374.119 218.1 373.872 218.02 373.672 217.86C373.486 217.7 373.392 217.46 373.392 217.14V209C373.392 208.693 373.486 208.46 373.672 208.3C373.872 208.127 374.119 208.04 374.412 208.04C374.679 208.04 374.899 208.127 375.072 208.3C375.259 208.46 375.352 208.687 375.352 208.98V209.94C375.619 209.353 376.006 208.907 376.512 208.6C377.019 208.293 377.592 208.113 378.232 208.06L378.512 208.04ZM386.156 205.44C385.49 205.493 384.996 205.707 384.676 206.08C384.356 206.44 384.196 206.973 384.196 207.68V208.24H386.176C386.456 208.24 386.67 208.313 386.816 208.46C386.976 208.593 387.056 208.78 387.056 209.02C387.056 209.26 386.976 209.453 386.816 209.6C386.67 209.733 386.456 209.8 386.176 209.8H384.196V217.12C384.196 217.44 384.096 217.687 383.896 217.86C383.71 218.02 383.47 218.1 383.176 218.1C382.883 218.1 382.643 218.02 382.456 217.86C382.27 217.687 382.176 217.44 382.176 217.12V209.8H380.976C380.696 209.8 380.476 209.733 380.316 209.6C380.17 209.453 380.096 209.26 380.096 209.02C380.096 208.78 380.17 208.593 380.316 208.46C380.476 208.313 380.696 208.24 380.976 208.24H382.176V207.98C382.176 206.753 382.49 205.793 383.116 205.1C383.743 204.393 384.63 204 385.776 203.92L386.296 203.88C386.723 203.853 387.03 203.9 387.216 204.02C387.416 204.14 387.516 204.333 387.516 204.6C387.516 205.067 387.236 205.333 386.676 205.4L386.156 205.44ZM392.395 208C393.688 208 394.648 208.327 395.275 208.98C395.915 209.633 396.235 210.627 396.235 211.96V217.14C396.235 217.447 396.148 217.687 395.975 217.86C395.801 218.02 395.561 218.1 395.255 218.1C394.961 218.1 394.728 218.013 394.555 217.84C394.381 217.667 394.295 217.433 394.295 217.14V216.4C394.041 216.96 393.661 217.393 393.155 217.7C392.661 217.993 392.081 218.14 391.415 218.14C390.775 218.14 390.188 218.013 389.655 217.76C389.135 217.493 388.721 217.133 388.415 216.68C388.108 216.227 387.955 215.713 387.955 215.14C387.941 214.42 388.121 213.86 388.495 213.46C388.868 213.047 389.475 212.753 390.315 212.58C391.155 212.393 392.321 212.3 393.815 212.3H394.275V211.72C394.275 210.973 394.121 210.433 393.815 210.1C393.508 209.767 393.015 209.6 392.335 209.6C391.868 209.6 391.428 209.66 391.015 209.78C390.601 209.9 390.148 210.073 389.655 210.3C389.295 210.5 389.041 210.6 388.895 210.6C388.695 210.6 388.528 210.527 388.395 210.38C388.275 210.233 388.215 210.047 388.215 209.82C388.215 209.62 388.268 209.447 388.375 209.3C388.495 209.14 388.681 208.987 388.935 208.84C389.401 208.587 389.948 208.387 390.575 208.24C391.201 208.08 391.808 208 392.395 208ZM391.775 216.64C392.508 216.64 393.108 216.393 393.575 215.9C394.041 215.393 394.275 214.747 394.275 213.96V213.44H393.915C392.875 213.44 392.075 213.487 391.515 213.58C390.955 213.673 390.555 213.833 390.315 214.06C390.075 214.273 389.955 214.587 389.955 215C389.955 215.48 390.128 215.873 390.475 216.18C390.821 216.487 391.255 216.64 391.775 216.64ZM404.258 208C406.591 208 407.758 209.313 407.758 211.94V217.14C407.758 217.447 407.664 217.687 407.478 217.86C407.304 218.02 407.058 218.1 406.738 218.1C406.431 218.1 406.184 218.013 405.998 217.84C405.824 217.667 405.738 217.433 405.738 217.14V212.04C405.738 211.213 405.571 210.607 405.238 210.22C404.918 209.833 404.411 209.64 403.718 209.64C402.904 209.64 402.251 209.893 401.758 210.4C401.264 210.907 401.018 211.587 401.018 212.44V217.14C401.018 217.433 400.924 217.667 400.738 217.84C400.564 218.013 400.324 218.1 400.018 218.1C399.711 218.1 399.464 218.013 399.278 217.84C399.091 217.667 398.998 217.433 398.998 217.14V209C398.998 208.72 399.091 208.493 399.278 208.32C399.478 208.133 399.724 208.04 400.018 208.04C400.311 208.04 400.544 208.127 400.718 208.3C400.891 208.473 400.978 208.7 400.978 208.98V209.8C401.298 209.213 401.744 208.767 402.318 208.46C402.891 208.153 403.538 208 404.258 208ZM414.621 208C415.914 208 416.874 208.327 417.501 208.98C418.141 209.633 418.461 210.627 418.461 211.96V217.14C418.461 217.447 418.374 217.687 418.201 217.86C418.028 218.02 417.788 218.1 417.481 218.1C417.188 218.1 416.954 218.013 416.781 217.84C416.608 217.667 416.521 217.433 416.521 217.14V216.4C416.268 216.96 415.888 217.393 415.381 217.7C414.888 217.993 414.308 218.14 413.641 218.14C413.001 218.14 412.414 218.013 411.881 217.76C411.361 217.493 410.948 217.133 410.641 216.68C410.334 216.227 410.181 215.713 410.181 215.14C410.168 214.42 410.348 213.86 410.721 213.46C411.094 213.047 411.701 212.753 412.541 212.58C413.381 212.393 414.548 212.3 416.041 212.3H416.501V211.72C416.501 210.973 416.348 210.433 416.041 210.1C415.734 209.767 415.241 209.6 414.561 209.6C414.094 209.6 413.654 209.66 413.241 209.78C412.828 209.9 412.374 210.073 411.881 210.3C411.521 210.5 411.268 210.6 411.121 210.6C410.921 210.6 410.754 210.527 410.621 210.38C410.501 210.233 410.441 210.047 410.441 209.82C410.441 209.62 410.494 209.447 410.601 209.3C410.721 209.14 410.908 208.987 411.161 208.84C411.628 208.587 412.174 208.387 412.801 208.24C413.428 208.08 414.034 208 414.621 208ZM414.001 216.64C414.734 216.64 415.334 216.393 415.801 215.9C416.268 215.393 416.501 214.747 416.501 213.96V213.44H416.141C415.101 213.44 414.301 213.487 413.741 213.58C413.181 213.673 412.781 213.833 412.541 214.06C412.301 214.273 412.181 214.587 412.181 215C412.181 215.48 412.354 215.873 412.701 216.18C413.048 216.487 413.481 216.64 414.001 216.64ZM426.004 216.56C426.298 216.587 426.504 216.667 426.624 216.8C426.758 216.92 426.824 217.093 426.824 217.32C426.824 217.587 426.718 217.793 426.504 217.94C426.304 218.073 426.004 218.127 425.604 218.1L425.064 218.06C423.984 217.98 423.178 217.653 422.644 217.08C422.111 216.493 421.844 215.633 421.844 214.5V209.8H420.644C420.058 209.8 419.764 209.54 419.764 209.02C419.764 208.78 419.838 208.593 419.984 208.46C420.144 208.313 420.364 208.24 420.644 208.24H421.844V206.18C421.844 205.873 421.931 205.633 422.104 205.46C422.291 205.287 422.538 205.2 422.844 205.2C423.151 205.2 423.398 205.287 423.584 205.46C423.771 205.633 423.864 205.873 423.864 206.18V208.24H425.844C426.124 208.24 426.338 208.313 426.484 208.46C426.644 208.593 426.724 208.78 426.724 209.02C426.724 209.273 426.644 209.467 426.484 209.6C426.338 209.733 426.124 209.8 425.844 209.8H423.864V214.64C423.864 215.267 423.991 215.727 424.244 216.02C424.511 216.313 424.911 216.48 425.444 216.52L426.004 216.56ZM432.515 218.14C431.555 218.14 430.708 217.933 429.975 217.52C429.255 217.107 428.695 216.52 428.295 215.76C427.908 214.987 427.715 214.093 427.715 213.08C427.715 212.053 427.908 211.16 428.295 210.4C428.695 209.627 429.255 209.033 429.975 208.62C430.708 208.207 431.555 208 432.515 208C433.475 208 434.315 208.207 435.035 208.62C435.768 209.033 436.328 209.627 436.715 210.4C437.115 211.16 437.315 212.053 437.315 213.08C437.315 214.093 437.115 214.987 436.715 215.76C436.328 216.52 435.768 217.107 435.035 217.52C434.315 217.933 433.475 218.14 432.515 218.14ZM432.515 216.54C433.408 216.54 434.088 216.247 434.555 215.66C435.035 215.073 435.275 214.213 435.275 213.08C435.275 211.96 435.035 211.107 434.555 210.52C434.075 209.92 433.395 209.62 432.515 209.62C431.635 209.62 430.955 209.92 430.475 210.52C429.995 211.107 429.755 211.96 429.755 213.08C429.755 214.213 429.988 215.073 430.455 215.66C430.935 216.247 431.622 216.54 432.515 216.54ZM442.964 218.14C441.604 218.14 440.491 217.86 439.624 217.3C439.384 217.153 439.211 217 439.104 216.84C439.011 216.68 438.964 216.5 438.964 216.3C438.964 216.087 439.024 215.907 439.144 215.76C439.264 215.613 439.417 215.54 439.604 215.54C439.777 215.54 440.051 215.647 440.424 215.86C440.824 216.073 441.211 216.247 441.584 216.38C441.971 216.513 442.451 216.58 443.024 216.58C443.664 216.58 444.164 216.467 444.524 216.24C444.884 216.013 445.064 215.693 445.064 215.28C445.064 215.013 444.991 214.8 444.844 214.64C444.711 214.48 444.471 214.34 444.124 214.22C443.777 214.087 443.264 213.947 442.584 213.8C441.411 213.547 440.564 213.207 440.044 212.78C439.537 212.34 439.284 211.747 439.284 211C439.284 210.427 439.451 209.913 439.784 209.46C440.117 208.993 440.577 208.633 441.164 208.38C441.751 208.127 442.417 208 443.164 208C443.697 208 444.217 208.073 444.724 208.22C445.231 208.353 445.677 208.553 446.064 208.82C446.504 209.113 446.724 209.453 446.724 209.84C446.724 210.053 446.657 210.233 446.524 210.38C446.404 210.527 446.257 210.6 446.084 210.6C445.964 210.6 445.844 210.573 445.724 210.52C445.604 210.467 445.444 210.38 445.244 210.26C444.884 210.047 444.544 209.88 444.224 209.76C443.917 209.64 443.531 209.58 443.064 209.58C442.504 209.58 442.051 209.7 441.704 209.94C441.371 210.18 441.204 210.507 441.204 210.92C441.204 211.293 441.357 211.587 441.664 211.8C441.984 212 442.577 212.193 443.444 212.38C444.337 212.567 445.037 212.78 445.544 213.02C446.051 213.26 446.411 213.56 446.624 213.92C446.851 214.267 446.964 214.713 446.964 215.26C446.964 216.127 446.597 216.827 445.864 217.36C445.144 217.88 444.177 218.14 442.964 218.14ZM462.126 215.54C462.313 215.54 462.466 215.613 462.586 215.76C462.706 215.907 462.766 216.093 462.766 216.32C462.766 216.707 462.526 217.033 462.046 217.3C461.579 217.567 461.066 217.773 460.506 217.92C459.959 218.067 459.433 218.14 458.926 218.14C457.379 218.14 456.159 217.693 455.266 216.8C454.373 215.893 453.926 214.66 453.926 213.1C453.926 212.1 454.119 211.213 454.506 210.44C454.906 209.667 455.459 209.067 456.166 208.64C456.886 208.213 457.699 208 458.606 208C459.913 208 460.946 208.42 461.706 209.26C462.466 210.1 462.846 211.233 462.846 212.66C462.846 213.193 462.606 213.46 462.126 213.46H455.946C456.079 215.527 457.073 216.56 458.926 216.56C459.419 216.56 459.846 216.493 460.206 216.36C460.566 216.227 460.946 216.053 461.346 215.84C461.386 215.813 461.493 215.76 461.666 215.68C461.853 215.587 462.006 215.54 462.126 215.54ZM458.646 209.48C457.873 209.48 457.253 209.727 456.786 210.22C456.319 210.713 456.039 211.407 455.946 212.3H461.106C461.066 211.393 460.833 210.7 460.406 210.22C459.993 209.727 459.406 209.48 458.646 209.48ZM481.545 208C483.732 208 484.825 209.313 484.825 211.94V217.14C484.825 217.447 484.732 217.687 484.545 217.86C484.359 218.02 484.112 218.1 483.805 218.1C483.512 218.1 483.272 218.02 483.085 217.86C482.899 217.687 482.805 217.447 482.805 217.14V211.96C482.805 211.147 482.659 210.56 482.365 210.2C482.072 209.827 481.612 209.64 480.985 209.64C480.252 209.64 479.672 209.893 479.245 210.4C478.819 210.893 478.605 211.573 478.605 212.44V217.14C478.605 217.447 478.512 217.687 478.325 217.86C478.139 218.02 477.892 218.1 477.585 218.1C477.292 218.1 477.052 218.02 476.865 217.86C476.679 217.687 476.585 217.447 476.585 217.14V211.96C476.585 211.147 476.439 210.56 476.145 210.2C475.852 209.827 475.392 209.64 474.765 209.64C474.032 209.64 473.445 209.893 473.005 210.4C472.579 210.893 472.365 211.573 472.365 212.44V217.14C472.365 217.447 472.272 217.687 472.085 217.86C471.899 218.02 471.659 218.1 471.365 218.1C471.072 218.1 470.825 218.02 470.625 217.86C470.439 217.687 470.345 217.447 470.345 217.14V209C470.345 208.707 470.445 208.473 470.645 208.3C470.845 208.127 471.085 208.04 471.365 208.04C471.645 208.04 471.872 208.127 472.045 208.3C472.232 208.46 472.325 208.687 472.325 208.98V209.72C472.619 209.16 473.025 208.733 473.545 208.44C474.065 208.147 474.665 208 475.345 208C476.092 208 476.705 208.153 477.185 208.46C477.679 208.767 478.045 209.24 478.285 209.88C478.579 209.307 479.012 208.853 479.585 208.52C480.159 208.173 480.812 208 481.545 208ZM495.151 208.04C495.458 208.04 495.698 208.127 495.871 208.3C496.058 208.473 496.151 208.713 496.151 209.02V217.16C496.151 217.44 496.058 217.667 495.871 217.84C495.685 218.013 495.438 218.1 495.131 218.1C494.851 218.1 494.625 218.02 494.451 217.86C494.278 217.687 494.191 217.46 494.191 217.18V216.42C493.885 216.98 493.458 217.407 492.911 217.7C492.378 217.993 491.778 218.14 491.111 218.14C488.738 218.14 487.551 216.833 487.551 214.22V209.02C487.551 208.713 487.638 208.473 487.811 208.3C487.998 208.127 488.251 208.04 488.571 208.04C488.878 208.04 489.118 208.127 489.291 208.3C489.478 208.473 489.571 208.713 489.571 209.02V214.2C489.571 214.987 489.731 215.567 490.051 215.94C490.371 216.313 490.865 216.5 491.531 216.5C492.318 216.5 492.945 216.247 493.411 215.74C493.891 215.233 494.131 214.56 494.131 213.72V209.02C494.131 208.727 494.225 208.493 494.411 208.32C494.598 208.133 494.845 208.04 495.151 208.04ZM506.958 203.8C507.265 203.8 507.511 203.887 507.698 204.06C507.885 204.233 507.978 204.467 507.978 204.76V217.12C507.978 217.427 507.885 217.667 507.698 217.84C507.525 218.013 507.285 218.1 506.978 218.1C506.671 218.1 506.425 218.013 506.238 217.84C506.065 217.667 505.978 217.427 505.978 217.12V216.32C505.685 216.907 505.258 217.36 504.698 217.68C504.138 217.987 503.491 218.14 502.758 218.14C501.918 218.14 501.165 217.927 500.498 217.5C499.845 217.073 499.331 216.473 498.958 215.7C498.598 214.927 498.418 214.04 498.418 213.04C498.418 212.027 498.598 211.14 498.958 210.38C499.331 209.62 499.845 209.033 500.498 208.62C501.151 208.207 501.905 208 502.758 208C503.491 208 504.131 208.16 504.678 208.48C505.238 208.787 505.665 209.227 505.958 209.8V204.72C505.958 204.44 506.045 204.22 506.218 204.06C506.405 203.887 506.651 203.8 506.958 203.8ZM503.238 216.54C504.105 216.54 504.778 216.24 505.258 215.64C505.738 215.04 505.978 214.187 505.978 213.08C505.978 211.973 505.738 211.12 505.258 210.52C504.791 209.92 504.118 209.62 503.238 209.62C502.358 209.62 501.671 209.92 501.178 210.52C500.698 211.107 500.458 211.947 500.458 213.04C500.458 214.133 500.705 214.993 501.198 215.62C501.691 216.233 502.371 216.54 503.238 216.54ZM518.435 215.54C518.621 215.54 518.775 215.613 518.895 215.76C519.015 215.907 519.075 216.093 519.075 216.32C519.075 216.707 518.835 217.033 518.355 217.3C517.888 217.567 517.375 217.773 516.815 217.92C516.268 218.067 515.741 218.14 515.235 218.14C513.688 218.14 512.468 217.693 511.575 216.8C510.681 215.893 510.235 214.66 510.235 213.1C510.235 212.1 510.428 211.213 510.815 210.44C511.215 209.667 511.768 209.067 512.475 208.64C513.195 208.213 514.008 208 514.915 208C516.221 208 517.255 208.42 518.015 209.26C518.775 210.1 519.155 211.233 519.155 212.66C519.155 213.193 518.915 213.46 518.435 213.46H512.255C512.388 215.527 513.381 216.56 515.235 216.56C515.728 216.56 516.155 216.493 516.515 216.36C516.875 216.227 517.255 216.053 517.655 215.84C517.695 215.813 517.801 215.76 517.975 215.68C518.161 215.587 518.315 215.54 518.435 215.54ZM514.955 209.48C514.181 209.48 513.561 209.727 513.095 210.22C512.628 210.713 512.348 211.407 512.255 212.3H517.415C517.375 211.393 517.141 210.7 516.715 210.22C516.301 209.727 515.715 209.48 514.955 209.48ZM530.894 218.14C529.934 218.14 529.087 217.933 528.354 217.52C527.634 217.107 527.074 216.52 526.674 215.76C526.287 214.987 526.094 214.093 526.094 213.08C526.094 212.053 526.287 211.16 526.674 210.4C527.074 209.627 527.634 209.033 528.354 208.62C529.087 208.207 529.934 208 530.894 208C531.854 208 532.694 208.207 533.414 208.62C534.147 209.033 534.707 209.627 535.094 210.4C535.494 211.16 535.694 212.053 535.694 213.08C535.694 214.093 535.494 214.987 535.094 215.76C534.707 216.52 534.147 217.107 533.414 217.52C532.694 217.933 531.854 218.14 530.894 218.14ZM530.894 216.54C531.787 216.54 532.467 216.247 532.934 215.66C533.414 215.073 533.654 214.213 533.654 213.08C533.654 211.96 533.414 211.107 532.934 210.52C532.454 209.92 531.774 209.62 530.894 209.62C530.014 209.62 529.334 209.92 528.854 210.52C528.374 211.107 528.134 211.96 528.134 213.08C528.134 214.213 528.367 215.073 528.834 215.66C529.314 216.247 530.001 216.54 530.894 216.54ZM551.196 203.8C551.503 203.8 551.75 203.887 551.936 204.06C552.123 204.233 552.216 204.467 552.216 204.76V217.12C552.216 217.427 552.123 217.667 551.936 217.84C551.763 218.013 551.523 218.1 551.216 218.1C550.91 218.1 550.663 218.013 550.476 217.84C550.303 217.667 550.216 217.427 550.216 217.12V216.32C549.923 216.907 549.496 217.36 548.936 217.68C548.376 217.987 547.73 218.14 546.996 218.14C546.156 218.14 545.403 217.927 544.736 217.5C544.083 217.073 543.57 216.473 543.196 215.7C542.836 214.927 542.656 214.04 542.656 213.04C542.656 212.027 542.836 211.14 543.196 210.38C543.57 209.62 544.083 209.033 544.736 208.62C545.39 208.207 546.143 208 546.996 208C547.73 208 548.37 208.16 548.916 208.48C549.476 208.787 549.903 209.227 550.196 209.8V204.72C550.196 204.44 550.283 204.22 550.456 204.06C550.643 203.887 550.89 203.8 551.196 203.8ZM547.476 216.54C548.343 216.54 549.016 216.24 549.496 215.64C549.976 215.04 550.216 214.187 550.216 213.08C550.216 211.973 549.976 211.12 549.496 210.52C549.03 209.92 548.356 209.62 547.476 209.62C546.596 209.62 545.91 209.92 545.416 210.52C544.936 211.107 544.696 211.947 544.696 213.04C544.696 214.133 544.943 214.993 545.436 215.62C545.93 216.233 546.61 216.54 547.476 216.54ZM556.053 218.1C555.759 218.1 555.513 218.02 555.313 217.86C555.126 217.7 555.033 217.46 555.033 217.14V209.02C555.033 208.7 555.126 208.46 555.313 208.3C555.513 208.127 555.759 208.04 556.053 208.04C556.346 208.04 556.586 208.127 556.773 208.3C556.959 208.46 557.053 208.7 557.053 209.02V217.14C557.053 217.46 556.959 217.7 556.773 217.86C556.586 218.02 556.346 218.1 556.053 218.1ZM556.053 206.08C555.666 206.08 555.359 205.973 555.133 205.76C554.906 205.547 554.793 205.267 554.793 204.92C554.793 204.573 554.906 204.3 555.133 204.1C555.359 203.887 555.666 203.78 556.053 203.78C556.426 203.78 556.726 203.887 556.953 204.1C557.193 204.3 557.313 204.573 557.313 204.92C557.313 205.267 557.199 205.547 556.973 205.76C556.746 205.973 556.439 206.08 556.053 206.08ZM563.977 208C565.27 208 566.23 208.327 566.857 208.98C567.497 209.633 567.817 210.627 567.817 211.96V217.14C567.817 217.447 567.73 217.687 567.557 217.86C567.383 218.02 567.143 218.1 566.837 218.1C566.543 218.1 566.31 218.013 566.137 217.84C565.963 217.667 565.877 217.433 565.877 217.14V216.4C565.623 216.96 565.243 217.393 564.737 217.7C564.243 217.993 563.663 218.14 562.997 218.14C562.357 218.14 561.77 218.013 561.237 217.76C560.717 217.493 560.303 217.133 559.997 216.68C559.69 216.227 559.537 215.713 559.537 215.14C559.523 214.42 559.703 213.86 560.077 213.46C560.45 213.047 561.057 212.753 561.897 212.58C562.737 212.393 563.903 212.3 565.397 212.3H565.857V211.72C565.857 210.973 565.703 210.433 565.397 210.1C565.09 209.767 564.597 209.6 563.917 209.6C563.45 209.6 563.01 209.66 562.597 209.78C562.183 209.9 561.73 210.073 561.237 210.3C560.877 210.5 560.623 210.6 560.477 210.6C560.277 210.6 560.11 210.527 559.977 210.38C559.857 210.233 559.797 210.047 559.797 209.82C559.797 209.62 559.85 209.447 559.957 209.3C560.077 209.14 560.263 208.987 560.517 208.84C560.983 208.587 561.53 208.387 562.157 208.24C562.783 208.08 563.39 208 563.977 208ZM563.357 216.64C564.09 216.64 564.69 216.393 565.157 215.9C565.623 215.393 565.857 214.747 565.857 213.96V213.44H565.497C564.457 213.44 563.657 213.487 563.097 213.58C562.537 213.673 562.137 213.833 561.897 214.06C561.657 214.273 561.537 214.587 561.537 215C561.537 215.48 561.71 215.873 562.057 216.18C562.403 216.487 562.837 216.64 563.357 216.64ZM583.833 203.8C584.14 203.8 584.386 203.887 584.573 204.06C584.76 204.233 584.853 204.467 584.853 204.76V217.12C584.853 217.427 584.76 217.667 584.573 217.84C584.4 218.013 584.16 218.1 583.853 218.1C583.546 218.1 583.3 218.013 583.113 217.84C582.94 217.667 582.853 217.427 582.853 217.12V216.32C582.56 216.907 582.133 217.36 581.573 217.68C581.013 217.987 580.366 218.14 579.633 218.14C578.793 218.14 578.04 217.927 577.373 217.5C576.72 217.073 576.206 216.473 575.833 215.7C575.473 214.927 575.293 214.04 575.293 213.04C575.293 212.027 575.473 211.14 575.833 210.38C576.206 209.62 576.72 209.033 577.373 208.62C578.026 208.207 578.78 208 579.633 208C580.366 208 581.006 208.16 581.553 208.48C582.113 208.787 582.54 209.227 582.833 209.8V204.72C582.833 204.44 582.92 204.22 583.093 204.06C583.28 203.887 583.526 203.8 583.833 203.8ZM580.113 216.54C580.98 216.54 581.653 216.24 582.133 215.64C582.613 215.04 582.853 214.187 582.853 213.08C582.853 211.973 582.613 211.12 582.133 210.52C581.666 209.92 580.993 209.62 580.113 209.62C579.233 209.62 578.546 209.92 578.053 210.52C577.573 211.107 577.333 211.947 577.333 213.04C577.333 214.133 577.58 214.993 578.073 215.62C578.566 216.233 579.246 216.54 580.113 216.54ZM595.31 215.54C595.496 215.54 595.65 215.613 595.77 215.76C595.89 215.907 595.95 216.093 595.95 216.32C595.95 216.707 595.71 217.033 595.23 217.3C594.763 217.567 594.25 217.773 593.69 217.92C593.143 218.067 592.616 218.14 592.11 218.14C590.563 218.14 589.343 217.693 588.45 216.8C587.556 215.893 587.11 214.66 587.11 213.1C587.11 212.1 587.303 211.213 587.69 210.44C588.09 209.667 588.643 209.067 589.35 208.64C590.07 208.213 590.883 208 591.79 208C593.096 208 594.13 208.42 594.89 209.26C595.65 210.1 596.03 211.233 596.03 212.66C596.03 213.193 595.79 213.46 595.31 213.46H589.13C589.263 215.527 590.256 216.56 592.11 216.56C592.603 216.56 593.03 216.493 593.39 216.36C593.75 216.227 594.13 216.053 594.53 215.84C594.57 215.813 594.676 215.76 594.85 215.68C595.036 215.587 595.19 215.54 595.31 215.54ZM591.83 209.48C591.056 209.48 590.436 209.727 589.97 210.22C589.503 210.713 589.223 211.407 589.13 212.3H594.29C594.25 211.393 594.016 210.7 593.59 210.22C593.176 209.727 592.59 209.48 591.83 209.48ZM390.012 236C392.199 236 393.292 237.313 393.292 239.94V245.14C393.292 245.447 393.199 245.687 393.012 245.86C392.825 246.02 392.579 246.1 392.272 246.1C391.979 246.1 391.739 246.02 391.552 245.86C391.365 245.687 391.272 245.447 391.272 245.14V239.96C391.272 239.147 391.125 238.56 390.832 238.2C390.539 237.827 390.079 237.64 389.452 237.64C388.719 237.64 388.139 237.893 387.712 238.4C387.285 238.893 387.072 239.573 387.072 240.44V245.14C387.072 245.447 386.979 245.687 386.792 245.86C386.605 246.02 386.359 246.1 386.052 246.1C385.759 246.1 385.519 246.02 385.332 245.86C385.145 245.687 385.052 245.447 385.052 245.14V239.96C385.052 239.147 384.905 238.56 384.612 238.2C384.319 237.827 383.859 237.64 383.232 237.64C382.499 237.64 381.912 237.893 381.472 238.4C381.045 238.893 380.832 239.573 380.832 240.44V245.14C380.832 245.447 380.739 245.687 380.552 245.86C380.365 246.02 380.125 246.1 379.832 246.1C379.539 246.1 379.292 246.02 379.092 245.86C378.905 245.687 378.812 245.447 378.812 245.14V237C378.812 236.707 378.912 236.473 379.112 236.3C379.312 236.127 379.552 236.04 379.832 236.04C380.112 236.04 380.339 236.127 380.512 236.3C380.699 236.46 380.792 236.687 380.792 236.98V237.72C381.085 237.16 381.492 236.733 382.012 236.44C382.532 236.147 383.132 236 383.812 236C384.559 236 385.172 236.153 385.652 236.46C386.145 236.767 386.512 237.24 386.752 237.88C387.045 237.307 387.479 236.853 388.052 236.52C388.625 236.173 389.279 236 390.012 236ZM403.618 236.04C403.925 236.04 404.165 236.127 404.338 236.3C404.525 236.473 404.618 236.713 404.618 237.02V245.16C404.618 245.44 404.525 245.667 404.338 245.84C404.152 246.013 403.905 246.1 403.598 246.1C403.318 246.1 403.092 246.02 402.918 245.86C402.745 245.687 402.658 245.46 402.658 245.18V244.42C402.352 244.98 401.925 245.407 401.378 245.7C400.845 245.993 400.245 246.14 399.578 246.14C397.205 246.14 396.018 244.833 396.018 242.22V237.02C396.018 236.713 396.105 236.473 396.278 236.3C396.465 236.127 396.718 236.04 397.038 236.04C397.345 236.04 397.585 236.127 397.758 236.3C397.945 236.473 398.038 236.713 398.038 237.02V242.2C398.038 242.987 398.198 243.567 398.518 243.94C398.838 244.313 399.332 244.5 399.998 244.5C400.785 244.5 401.412 244.247 401.878 243.74C402.358 243.233 402.598 242.56 402.598 241.72V237.02C402.598 236.727 402.692 236.493 402.878 236.32C403.065 236.133 403.312 236.04 403.618 236.04ZM408.465 246.1C408.172 246.1 407.925 246.02 407.725 245.86C407.538 245.7 407.445 245.46 407.445 245.14V237.02C407.445 236.7 407.538 236.46 407.725 236.3C407.925 236.127 408.172 236.04 408.465 236.04C408.758 236.04 408.998 236.127 409.185 236.3C409.372 236.46 409.465 236.7 409.465 237.02V245.14C409.465 245.46 409.372 245.7 409.185 245.86C408.998 246.02 408.758 246.1 408.465 246.1ZM408.465 234.08C408.078 234.08 407.772 233.973 407.545 233.76C407.318 233.547 407.205 233.267 407.205 232.92C407.205 232.573 407.318 232.3 407.545 232.1C407.772 231.887 408.078 231.78 408.465 231.78C408.838 231.78 409.138 231.887 409.365 232.1C409.605 232.3 409.725 232.573 409.725 232.92C409.725 233.267 409.612 233.547 409.385 233.76C409.158 233.973 408.852 234.08 408.465 234.08ZM417.342 244.56C417.635 244.587 417.842 244.667 417.962 244.8C418.095 244.92 418.162 245.093 418.162 245.32C418.162 245.587 418.055 245.793 417.842 245.94C417.642 246.073 417.342 246.127 416.942 246.1L416.402 246.06C415.322 245.98 414.515 245.653 413.982 245.08C413.449 244.493 413.182 243.633 413.182 242.5V237.8H411.982C411.395 237.8 411.102 237.54 411.102 237.02C411.102 236.78 411.175 236.593 411.322 236.46C411.482 236.313 411.702 236.24 411.982 236.24H413.182V234.18C413.182 233.873 413.269 233.633 413.442 233.46C413.629 233.287 413.875 233.2 414.182 233.2C414.489 233.2 414.735 233.287 414.922 233.46C415.109 233.633 415.202 233.873 415.202 234.18V236.24H417.182C417.462 236.24 417.675 236.313 417.822 236.46C417.982 236.593 418.062 236.78 418.062 237.02C418.062 237.273 417.982 237.467 417.822 237.6C417.675 237.733 417.462 237.8 417.182 237.8H415.202V242.64C415.202 243.267 415.329 243.727 415.582 244.02C415.849 244.313 416.249 244.48 416.782 244.52L417.342 244.56ZM423.713 236C425.006 236 425.966 236.327 426.593 236.98C427.233 237.633 427.553 238.627 427.553 239.96V245.14C427.553 245.447 427.466 245.687 427.293 245.86C427.12 246.02 426.88 246.1 426.573 246.1C426.28 246.1 426.046 246.013 425.873 245.84C425.7 245.667 425.613 245.433 425.613 245.14V244.4C425.36 244.96 424.98 245.393 424.473 245.7C423.98 245.993 423.4 246.14 422.733 246.14C422.093 246.14 421.506 246.013 420.973 245.76C420.453 245.493 420.04 245.133 419.733 244.68C419.426 244.227 419.273 243.713 419.273 243.14C419.26 242.42 419.44 241.86 419.813 241.46C420.186 241.047 420.793 240.753 421.633 240.58C422.473 240.393 423.64 240.3 425.133 240.3H425.593V239.72C425.593 238.973 425.44 238.433 425.133 238.1C424.826 237.767 424.333 237.6 423.653 237.6C423.186 237.6 422.746 237.66 422.333 237.78C421.92 237.9 421.466 238.073 420.973 238.3C420.613 238.5 420.36 238.6 420.213 238.6C420.013 238.6 419.846 238.527 419.713 238.38C419.593 238.233 419.533 238.047 419.533 237.82C419.533 237.62 419.586 237.447 419.693 237.3C419.813 237.14 420 236.987 420.253 236.84C420.72 236.587 421.266 236.387 421.893 236.24C422.52 236.08 423.126 236 423.713 236ZM423.093 244.64C423.826 244.64 424.426 244.393 424.893 243.9C425.36 243.393 425.593 242.747 425.593 241.96V241.44H425.233C424.193 241.44 423.393 241.487 422.833 241.58C422.273 241.673 421.873 241.833 421.633 242.06C421.393 242.273 421.273 242.587 421.273 243C421.273 243.48 421.446 243.873 421.793 244.18C422.14 244.487 422.573 244.64 423.093 244.64ZM433.716 246.14C432.356 246.14 431.243 245.86 430.376 245.3C430.136 245.153 429.963 245 429.856 244.84C429.763 244.68 429.716 244.5 429.716 244.3C429.716 244.087 429.776 243.907 429.896 243.76C430.016 243.613 430.169 243.54 430.356 243.54C430.529 243.54 430.803 243.647 431.176 243.86C431.576 244.073 431.963 244.247 432.336 244.38C432.723 244.513 433.203 244.58 433.776 244.58C434.416 244.58 434.916 244.467 435.276 244.24C435.636 244.013 435.816 243.693 435.816 243.28C435.816 243.013 435.743 242.8 435.596 242.64C435.463 242.48 435.223 242.34 434.876 242.22C434.529 242.087 434.016 241.947 433.336 241.8C432.163 241.547 431.316 241.207 430.796 240.78C430.289 240.34 430.036 239.747 430.036 239C430.036 238.427 430.203 237.913 430.536 237.46C430.869 236.993 431.329 236.633 431.916 236.38C432.503 236.127 433.169 236 433.916 236C434.449 236 434.969 236.073 435.476 236.22C435.983 236.353 436.429 236.553 436.816 236.82C437.256 237.113 437.476 237.453 437.476 237.84C437.476 238.053 437.409 238.233 437.276 238.38C437.156 238.527 437.009 238.6 436.836 238.6C436.716 238.6 436.596 238.573 436.476 238.52C436.356 238.467 436.196 238.38 435.996 238.26C435.636 238.047 435.296 237.88 434.976 237.76C434.669 237.64 434.283 237.58 433.816 237.58C433.256 237.58 432.803 237.7 432.456 237.94C432.123 238.18 431.956 238.507 431.956 238.92C431.956 239.293 432.109 239.587 432.416 239.8C432.736 240 433.329 240.193 434.196 240.38C435.089 240.567 435.789 240.78 436.296 241.02C436.803 241.26 437.163 241.56 437.376 241.92C437.603 242.267 437.716 242.713 437.716 243.26C437.716 244.127 437.349 244.827 436.616 245.36C435.896 245.88 434.929 246.14 433.716 246.14ZM449.418 246.14C448.471 246.14 447.638 245.933 446.918 245.52C446.211 245.107 445.658 244.52 445.258 243.76C444.871 243 444.678 242.12 444.678 241.12C444.678 240.107 444.878 239.213 445.278 238.44C445.691 237.667 446.265 237.067 446.998 236.64C447.731 236.213 448.571 236 449.518 236C450.025 236 450.531 236.073 451.038 236.22C451.558 236.367 452.018 236.567 452.418 236.82C452.845 237.113 453.058 237.453 453.058 237.84C453.058 238.067 452.998 238.26 452.878 238.42C452.758 238.567 452.605 238.64 452.418 238.64C452.298 238.64 452.178 238.613 452.058 238.56C451.938 238.493 451.785 238.4 451.598 238.28C451.265 238.067 450.951 237.907 450.658 237.8C450.378 237.68 450.038 237.62 449.638 237.62C448.731 237.62 448.025 237.927 447.518 238.54C447.025 239.153 446.778 240.007 446.778 241.1C446.778 242.193 447.025 243.04 447.518 243.64C448.011 244.227 448.711 244.52 449.618 244.52C450.018 244.52 450.371 244.46 450.678 244.34C450.985 244.22 451.298 244.06 451.618 243.86C451.765 243.767 451.911 243.687 452.058 243.62C452.205 243.553 452.338 243.52 452.458 243.52C452.645 243.52 452.798 243.6 452.918 243.76C453.038 243.907 453.098 244.093 453.098 244.32C453.098 244.507 453.045 244.68 452.938 244.84C452.845 244.987 452.678 245.14 452.438 245.3C452.038 245.567 451.571 245.773 451.038 245.92C450.505 246.067 449.965 246.14 449.418 246.14ZM460.026 236.04C460.666 236 460.986 236.273 460.986 236.86C460.986 237.153 460.913 237.373 460.766 237.52C460.619 237.667 460.366 237.753 460.006 237.78L459.406 237.84C458.566 237.92 457.939 238.213 457.526 238.72C457.126 239.227 456.926 239.84 456.926 240.56V245.14C456.926 245.46 456.833 245.7 456.646 245.86C456.459 246.02 456.219 246.1 455.926 246.1C455.633 246.1 455.386 246.02 455.186 245.86C454.999 245.7 454.906 245.46 454.906 245.14V237C454.906 236.693 454.999 236.46 455.186 236.3C455.386 236.127 455.633 236.04 455.926 236.04C456.193 236.04 456.413 236.127 456.586 236.3C456.773 236.46 456.866 236.687 456.866 236.98V237.94C457.133 237.353 457.519 236.907 458.026 236.6C458.533 236.293 459.106 236.113 459.746 236.06L460.026 236.04ZM463.25 246.1C462.957 246.1 462.71 246.02 462.51 245.86C462.323 245.7 462.23 245.46 462.23 245.14V237.02C462.23 236.7 462.323 236.46 462.51 236.3C462.71 236.127 462.957 236.04 463.25 236.04C463.543 236.04 463.783 236.127 463.97 236.3C464.157 236.46 464.25 236.7 464.25 237.02V245.14C464.25 245.46 464.157 245.7 463.97 245.86C463.783 246.02 463.543 246.1 463.25 246.1ZM463.25 234.08C462.863 234.08 462.557 233.973 462.33 233.76C462.103 233.547 461.99 233.267 461.99 232.92C461.99 232.573 462.103 232.3 462.33 232.1C462.557 231.887 462.863 231.78 463.25 231.78C463.623 231.78 463.923 231.887 464.15 232.1C464.39 232.3 464.51 232.573 464.51 232.92C464.51 233.267 464.397 233.547 464.17 233.76C463.943 233.973 463.637 234.08 463.25 234.08ZM471.174 236C472.467 236 473.427 236.327 474.054 236.98C474.694 237.633 475.014 238.627 475.014 239.96V245.14C475.014 245.447 474.927 245.687 474.754 245.86C474.58 246.02 474.34 246.1 474.034 246.1C473.74 246.1 473.507 246.013 473.334 245.84C473.16 245.667 473.074 245.433 473.074 245.14V244.4C472.82 244.96 472.44 245.393 471.934 245.7C471.44 245.993 470.86 246.14 470.194 246.14C469.554 246.14 468.967 246.013 468.434 245.76C467.914 245.493 467.5 245.133 467.194 244.68C466.887 244.227 466.734 243.713 466.734 243.14C466.72 242.42 466.9 241.86 467.274 241.46C467.647 241.047 468.254 240.753 469.094 240.58C469.934 240.393 471.1 240.3 472.594 240.3H473.054V239.72C473.054 238.973 472.9 238.433 472.594 238.1C472.287 237.767 471.794 237.6 471.114 237.6C470.647 237.6 470.207 237.66 469.794 237.78C469.38 237.9 468.927 238.073 468.434 238.3C468.074 238.5 467.82 238.6 467.674 238.6C467.474 238.6 467.307 238.527 467.174 238.38C467.054 238.233 466.994 238.047 466.994 237.82C466.994 237.62 467.047 237.447 467.154 237.3C467.274 237.14 467.46 236.987 467.714 236.84C468.18 236.587 468.727 236.387 469.354 236.24C469.98 236.08 470.587 236 471.174 236ZM470.554 244.64C471.287 244.64 471.887 244.393 472.354 243.9C472.82 243.393 473.054 242.747 473.054 241.96V241.44H472.694C471.654 241.44 470.854 241.487 470.294 241.58C469.734 241.673 469.334 241.833 469.094 242.06C468.854 242.273 468.734 242.587 468.734 243C468.734 243.48 468.907 243.873 469.254 244.18C469.6 244.487 470.034 244.64 470.554 244.64ZM483.037 236C485.37 236 486.537 237.313 486.537 239.94V245.14C486.537 245.447 486.444 245.687 486.257 245.86C486.084 246.02 485.837 246.1 485.517 246.1C485.21 246.1 484.964 246.013 484.777 245.84C484.604 245.667 484.517 245.433 484.517 245.14V240.04C484.517 239.213 484.35 238.607 484.017 238.22C483.697 237.833 483.19 237.64 482.497 237.64C481.684 237.64 481.03 237.893 480.537 238.4C480.044 238.907 479.797 239.587 479.797 240.44V245.14C479.797 245.433 479.704 245.667 479.517 245.84C479.344 246.013 479.104 246.1 478.797 246.1C478.49 246.1 478.244 246.013 478.057 245.84C477.87 245.667 477.777 245.433 477.777 245.14V237C477.777 236.72 477.87 236.493 478.057 236.32C478.257 236.133 478.504 236.04 478.797 236.04C479.09 236.04 479.324 236.127 479.497 236.3C479.67 236.473 479.757 236.7 479.757 236.98V237.8C480.077 237.213 480.524 236.767 481.097 236.46C481.67 236.153 482.317 236 483.037 236ZM496.52 243.52C496.707 243.52 496.86 243.6 496.98 243.76C497.1 243.907 497.16 244.093 497.16 244.32C497.16 244.507 497.107 244.68 497 244.84C496.907 244.987 496.74 245.14 496.5 245.3C496.154 245.527 495.754 245.713 495.3 245.86C494.847 246.007 494.387 246.093 493.92 246.12L493.82 246.88C494.007 246.84 494.174 246.82 494.32 246.82C494.734 246.82 495.08 246.94 495.36 247.18C495.654 247.42 495.8 247.76 495.8 248.2C495.8 248.693 495.587 249.093 495.16 249.4C494.734 249.72 494.127 249.88 493.34 249.88C492.82 249.88 492.36 249.807 491.96 249.66C491.72 249.567 491.6 249.4 491.6 249.16C491.6 249 491.654 248.867 491.76 248.76C491.88 248.653 492.034 248.627 492.22 248.68C492.62 248.787 492.994 248.84 493.34 248.84C493.687 248.84 493.954 248.787 494.14 248.68C494.327 248.573 494.42 248.413 494.42 248.2C494.42 248.04 494.367 247.913 494.26 247.82C494.167 247.74 494.027 247.7 493.84 247.7C493.707 247.7 493.527 247.727 493.3 247.78C493.074 247.833 492.934 247.86 492.88 247.86C492.774 247.86 492.674 247.82 492.58 247.74C492.5 247.673 492.467 247.58 492.48 247.46L492.64 246.08C491.44 245.893 490.487 245.36 489.78 244.48C489.087 243.6 488.74 242.48 488.74 241.12C488.74 240.107 488.94 239.213 489.34 238.44C489.754 237.667 490.327 237.067 491.06 236.64C491.794 236.213 492.634 236 493.58 236C494.087 236 494.594 236.073 495.1 236.22C495.62 236.367 496.08 236.567 496.48 236.82C496.907 237.113 497.12 237.453 497.12 237.84C497.12 238.067 497.06 238.26 496.94 238.42C496.82 238.567 496.667 238.64 496.48 238.64C496.36 238.64 496.24 238.613 496.12 238.56C496 238.493 495.847 238.4 495.66 238.28C495.327 238.067 495.014 237.907 494.72 237.8C494.44 237.68 494.1 237.62 493.7 237.62C492.794 237.62 492.087 237.927 491.58 238.54C491.087 239.153 490.84 240.007 490.84 241.1C490.84 242.193 491.087 243.04 491.58 243.64C492.074 244.227 492.774 244.52 493.68 244.52C494.08 244.52 494.434 244.46 494.74 244.34C495.047 244.22 495.36 244.06 495.68 243.86C495.827 243.767 495.974 243.687 496.12 243.62C496.267 243.553 496.4 243.52 496.52 243.52ZM503.068 236C504.362 236 505.322 236.327 505.948 236.98C506.588 237.633 506.908 238.627 506.908 239.96V245.14C506.908 245.447 506.822 245.687 506.648 245.86C506.475 246.02 506.235 246.1 505.928 246.1C505.635 246.1 505.402 246.013 505.228 245.84C505.055 245.667 504.968 245.433 504.968 245.14V244.4C504.715 244.96 504.335 245.393 503.828 245.7C503.335 245.993 502.755 246.14 502.088 246.14C501.448 246.14 500.862 246.013 500.328 245.76C499.808 245.493 499.395 245.133 499.088 244.68C498.782 244.227 498.628 243.713 498.628 243.14C498.615 242.42 498.795 241.86 499.168 241.46C499.542 241.047 500.148 240.753 500.988 240.58C501.828 240.393 502.995 240.3 504.488 240.3H504.948V239.72C504.948 238.973 504.795 238.433 504.488 238.1C504.182 237.767 503.688 237.6 503.008 237.6C502.542 237.6 502.102 237.66 501.688 237.78C501.275 237.9 500.822 238.073 500.328 238.3C499.968 238.5 499.715 238.6 499.568 238.6C499.368 238.6 499.202 238.527 499.068 238.38C498.948 238.233 498.888 238.047 498.888 237.82C498.888 237.62 498.942 237.447 499.048 237.3C499.168 237.14 499.355 236.987 499.608 236.84C500.075 236.587 500.622 236.387 501.248 236.24C501.875 236.08 502.482 236 503.068 236ZM502.448 244.64C503.182 244.64 503.782 244.393 504.248 243.9C504.715 243.393 504.948 242.747 504.948 241.96V241.44H504.588C503.548 241.44 502.748 241.487 502.188 241.58C501.628 241.673 501.228 241.833 500.988 242.06C500.748 242.273 500.628 242.587 500.628 243C500.628 243.48 500.802 243.873 501.148 244.18C501.495 244.487 501.928 244.64 502.448 244.64ZM513.071 246.14C511.711 246.14 510.598 245.86 509.731 245.3C509.491 245.153 509.318 245 509.211 244.84C509.118 244.68 509.071 244.5 509.071 244.3C509.071 244.087 509.131 243.907 509.251 243.76C509.371 243.613 509.525 243.54 509.711 243.54C509.885 243.54 510.158 243.647 510.531 243.86C510.931 244.073 511.318 244.247 511.691 244.38C512.078 244.513 512.558 244.58 513.131 244.58C513.771 244.58 514.271 244.467 514.631 244.24C514.991 244.013 515.171 243.693 515.171 243.28C515.171 243.013 515.098 242.8 514.951 242.64C514.818 242.48 514.578 242.34 514.231 242.22C513.885 242.087 513.371 241.947 512.691 241.8C511.518 241.547 510.671 241.207 510.151 240.78C509.645 240.34 509.391 239.747 509.391 239C509.391 238.427 509.558 237.913 509.891 237.46C510.225 236.993 510.685 236.633 511.271 236.38C511.858 236.127 512.525 236 513.271 236C513.805 236 514.325 236.073 514.831 236.22C515.338 236.353 515.785 236.553 516.171 236.82C516.611 237.113 516.831 237.453 516.831 237.84C516.831 238.053 516.765 238.233 516.631 238.38C516.511 238.527 516.365 238.6 516.191 238.6C516.071 238.6 515.951 238.573 515.831 238.52C515.711 238.467 515.551 238.38 515.351 238.26C514.991 238.047 514.651 237.88 514.331 237.76C514.025 237.64 513.638 237.58 513.171 237.58C512.611 237.58 512.158 237.7 511.811 237.94C511.478 238.18 511.311 238.507 511.311 238.92C511.311 239.293 511.465 239.587 511.771 239.8C512.091 240 512.685 240.193 513.551 240.38C514.445 240.567 515.145 240.78 515.651 241.02C516.158 241.26 516.518 241.56 516.731 241.92C516.958 242.267 517.071 242.713 517.071 243.26C517.071 244.127 516.705 244.827 515.971 245.36C515.251 245.88 514.285 246.14 513.071 246.14ZM520.202 246.1C519.842 246.1 519.536 245.98 519.282 245.74C519.042 245.5 518.922 245.193 518.922 244.82C518.922 244.447 519.042 244.14 519.282 243.9C519.536 243.647 519.842 243.52 520.202 243.52C520.562 243.52 520.862 243.647 521.102 243.9C521.342 244.14 521.462 244.447 521.462 244.82C521.462 245.193 521.342 245.5 521.102 245.74C520.862 245.98 520.562 246.1 520.202 246.1Z" fill="white"/>
<path fill-rule="evenodd" clip-rule="evenodd" d="M372.369 124.487C369.317 124.487 365.695 125.134 361.738 129.723V116.882C361.738 113.639 359.105 111 355.869 111C352.633 111 350 113.639 350 116.882V158.756C350 162 352.633 164.638 355.869 164.638C359.105 164.638 361.738 162 361.738 158.756V142.504C361.738 137.832 363.951 135.252 367.984 135.252C371.933 135.252 374.013 137.756 374.013 142.504V158.756C374.013 162 376.645 164.638 379.882 164.638C383.118 164.638 385.751 162 385.751 158.756V139.092C385.742 129.949 380.745 124.487 372.369 124.487ZM406.075 124.773C401.296 124.773 397.506 125.395 393.792 126.79C391.864 127.513 390.572 129.378 390.572 131.429C390.572 134.168 392.744 136.311 395.519 136.311C396.089 136.311 396.567 136.227 397.221 136.008C399.477 135.302 401.858 134.966 404.516 134.966C410.821 134.966 412.162 138.454 412.179 141.403C409.99 140.689 407.232 140.034 403.384 140.034C393.356 140.034 387.604 144.63 387.604 152.655V152.798C387.604 160.05 393.037 164.924 401.12 164.924C405.673 164.924 409.32 163.538 412.229 160.697C412.724 162.773 414.711 164.647 417.763 164.647C420.974 164.647 423.489 162.159 423.489 158.983V141.647C423.489 136.193 422.064 131.992 419.238 129.168C416.321 126.252 411.894 124.773 406.075 124.773ZM404.373 156.496C401.044 156.496 398.982 154.916 398.982 152.37V152.227C398.982 149.193 401.514 147.462 405.932 147.462C408.196 147.462 410.452 147.907 412.321 148.714V150.319C412.321 153.949 409.051 156.496 404.373 156.496ZM439.218 129.824C442.253 126.236 445.992 124.488 450.62 124.488C459.449 124.488 468.378 131.404 468.378 144.63V144.773C468.378 150.866 466.509 156.025 462.979 159.706C459.751 163.076 455.366 164.924 450.62 164.924C446.051 164.924 442.421 163.361 439.276 160.034V170.118C439.276 173.361 436.644 176 433.407 176C430.171 176 427.538 173.361 427.538 170.118V130.656C427.538 127.412 430.171 124.773 433.407 124.773C436.367 124.773 438.815 126.975 439.218 129.824ZM456.649 144.63C456.649 138.925 452.867 134.614 447.854 134.614C442.806 134.614 439.134 138.824 439.134 144.63V144.773C439.134 150.58 442.798 154.79 447.854 154.79C452.951 154.79 456.649 150.58 456.649 144.773V144.63ZM494.168 124.488C489.54 124.488 485.801 126.236 482.766 129.824C482.363 126.975 479.915 124.773 476.955 124.773C473.719 124.773 471.086 127.412 471.086 130.656V170.118C471.086 173.361 473.719 176 476.955 176C480.192 176 482.824 173.361 482.824 170.118V160.034C485.968 163.361 489.599 164.924 494.168 164.924C498.914 164.924 503.299 163.076 506.527 159.706C510.057 156.025 511.926 150.866 511.926 144.773V144.63C511.926 131.404 502.997 124.488 494.168 124.488ZM491.401 134.614C496.415 134.614 500.197 138.925 500.197 144.63V144.773C500.197 150.58 496.499 154.79 491.401 154.79C486.346 154.79 482.682 150.58 482.682 144.773V144.63C482.682 138.824 486.354 134.614 491.401 134.614ZM538.111 129.21C539.201 126.303 541.146 124.773 543.736 124.773C546.864 124.773 549.32 127.168 549.312 130.21C549.312 131.093 549.027 132.37 548.775 132.958L535.537 164.823C532.208 172.899 528.737 175.764 522.273 175.764C519.992 175.764 518.24 175.462 516.228 174.739C514.844 174.235 512.513 172.924 512.513 169.815C512.513 166.756 514.92 164.933 517.242 164.933C518.164 164.933 518.718 165.092 519.162 165.244C520.076 165.529 520.579 165.647 521.275 165.647C523.036 165.647 523.773 165.361 524.662 163.655L524.93 163.017L512.052 133.109C511.759 132.37 511.448 131.227 511.448 130.429C511.448 127.202 513.939 124.765 517.242 124.765C519.967 124.765 521.811 126.193 522.868 129.135L530.623 150.034L538.111 129.21Z" fill="white"/>
<path d="M469.329 74.2409V96.8392C469.329 105.808 462.029 113.08 453.026 113.08H451.377L442.956 121.463C442.626 121.792 442.17 122 441.664 122C441.197 122 440.774 121.83 440.45 121.546L440.307 121.403L440.301 121.398L431.952 113.08H430.297C421.299 113.08 414 105.808 414 96.8392V74.2409C414 65.2717 421.299 58 430.303 58H453.026C462.029 58 469.329 65.2717 469.329 74.2409Z" fill="#FFD666"/>
<path d="M426.882 89.3055C425.277 89.3055 424.362 91.1275 425.294 92.443C428.915 97.5677 434.902 100.909 441.667 100.909C448.432 100.909 454.414 97.5622 458.035 92.443C458.966 91.1275 458.052 89.3055 456.447 89.3055H426.882Z" fill="white"/>
<path d="M436.283 81.5501H426.598V76.6842C426.598 73.998 428.767 71.8183 431.44 71.8183C434.113 71.8183 436.283 73.998 436.283 76.6842V81.5501Z" fill="white"/>
<path d="M456.737 81.5501H447.052V76.6842C447.052 73.998 449.221 71.8183 451.895 71.8183C454.568 71.8183 456.737 73.998 456.737 76.6842V81.5501Z" fill="white"/>
<defs>
<linearGradient id="paint0_linear" x1="900" y1="302" x2="808.903" y2="-159.628" gradientUnits="userSpaceOnUse">
<stop stop-color="#29B6D1"/>
<stop offset="1" stop-color="#00C7C7"/>
</linearGradient>
</defs>
</svg>
